<svg width="180" height="212" viewBox="0 0 180 212" fill="none" xmlns="http://www.w3.org/2000/svg">
<path d="M90 0.5C139.43 0.5 179.5 40.6223 179.5 90.1143C179.5 139.606 139.43 179.729 90 179.729C40.5699 179.729 0.5 139.606 0.5 90.1143C0.500099 40.6223 40.57 0.5 90 0.5Z" fill="url(#paint0_linear_2275_31771)" stroke="#79A5B2"/>
<g clip-path="url(#clip0_2275_31771)">
<g clip-path="url(#clip1_2275_31771)">
<g opacity="0.4" filter="url(#filter0_f_2275_31771)">
<path d="M90 75C94.9706 75 99 70.9706 99 66C99 61.0294 94.9706 57 90 57C85.0294 57 81 61.0294 81 66C81 70.9706 85.0294 75 90 75Z" fill="#73BBFE" fill-opacity="0.92"/>
<g filter="url(#filter1_f_2275_31771)">
<path d="M74.5 103C81.4036 103 87 97.6274 87 91C87 84.3726 81.4036 79 74.5 79C67.5964 79 62 84.3726 62 91C62 97.6274 67.5964 103 74.5 103Z" fill="#0066FF" fill-opacity="0.9"/>
</g>
<g filter="url(#filter2_f_2275_31771)">
<path d="M102.5 97C109.404 97 115 91.6274 115 85C115 78.3726 109.404 73 102.5 73C95.5964 73 90 78.3726 90 85C90 91.6274 95.5964 97 102.5 97Z" fill="#0066FF" fill-opacity="0.9"/>
</g>
<g filter="url(#filter3_f_2275_31771)">
<path d="M96.5 133C108.374 133 118 123.598 118 112C118 100.402 108.374 91 96.5 91C84.6259 91 75 100.402 75 112C75 123.598 84.6259 133 96.5 133Z" fill="#0062FF" fill-opacity="0.92"/>
</g>
</g>
<path d="M122.785 104.571C122.785 86.4297 89.9996 42.6426 89.9996 42.6426C89.9996 42.6426 57.2139 86.4297 57.2139 104.571C57.2139 113.266 60.6681 121.606 66.8166 127.754C72.9651 133.903 81.3043 137.357 89.9996 137.357C98.6949 137.357 107.034 133.903 113.183 127.754C119.331 121.606 122.785 113.266 122.785 104.571V104.571Z" stroke="url(#paint1_linear_2275_31771)" stroke-width="3" stroke-linecap="round" stroke-linejoin="round"/>
</g>
</g>
<defs>
<filter id="filter0_f_2275_31771" x="40.7" y="35.7" width="98.6" height="118.6" filterUnits="userSpaceOnUse" color-interpolation-filters="sRGB">
<feFlood flood-opacity="0" result="BackgroundImageFix"/>
<feBlend mode="normal" in="SourceGraphic" in2="BackgroundImageFix" result="shape"/>
<feGaussianBlur stdDeviation="10.65" result="effect1_foregroundBlur_2275_31771"/>
</filter>
<filter id="filter1_f_2275_31771" x="58" y="75" width="33" height="32" filterUnits="userSpaceOnUse" color-interpolation-filters="sRGB">
<feFlood flood-opacity="0" result="BackgroundImageFix"/>
<feBlend mode="normal" in="SourceGraphic" in2="BackgroundImageFix" result="shape"/>
<feGaussianBlur stdDeviation="2" result="effect1_foregroundBlur_2275_31771"/>
</filter>
<filter id="filter2_f_2275_31771" x="86" y="69" width="33" height="32" filterUnits="userSpaceOnUse" color-interpolation-filters="sRGB">
<feFlood flood-opacity="0" result="BackgroundImageFix"/>
<feBlend mode="normal" in="SourceGraphic" in2="BackgroundImageFix" result="shape"/>
<feGaussianBlur stdDeviation="2" result="effect1_foregroundBlur_2275_31771"/>
</filter>
<filter id="filter3_f_2275_31771" x="71" y="87" width="51" height="50" filterUnits="userSpaceOnUse" color-interpolation-filters="sRGB">
<feFlood flood-opacity="0" result="BackgroundImageFix"/>
<feBlend mode="normal" in="SourceGraphic" in2="BackgroundImageFix" result="shape"/>
<feGaussianBlur stdDeviation="2" result="effect1_foregroundBlur_2275_31771"/>
</filter>
<linearGradient id="paint0_linear_2275_31771" x1="90" y1="1" x2="90" y2="179.229" gradientUnits="userSpaceOnUse">
<stop stop-color="#A3B9CE" stop-opacity="0.7"/>
<stop offset="0.075" stop-color="#268FFF" stop-opacity="0.5"/>
<stop offset="0.235" stop-color="#6CC1D5" stop-opacity="0.28"/>
<stop offset="0.91" stop-color="#AFBDCD" stop-opacity="0.4"/>
<stop offset="1" stop-color="#91B7FF" stop-opacity="0.7"/>
</linearGradient>
<linearGradient id="paint1_linear_2275_31771" x1="89.9996" y1="42.6426" x2="89.9996" y2="137.357" gradientUnits="userSpaceOnUse">
<stop stop-color="#1A3258"/>
<stop offset="0.5" stop-color="#254D65"/>
<stop offset="1" stop-color="#5469BA"/>
</linearGradient>
<clipPath id="clip0_2275_31771">
<rect width="102" height="102" fill="white" transform="translate(39 39)"/>
</clipPath>
<clipPath id="clip1_2275_31771">
<rect width="102" height="102" fill="white" transform="translate(39 39)"/>
</clipPath>
</defs>
</svg>
