<svg width="2500" height="5807" viewBox="0 0 2500 5807" fill="none" xmlns="http://www.w3.org/2000/svg">
<g clip-path="url(#clip0_2747_37218)">
<rect width="2500" height="5807" fill="black"/>
<g opacity="0.6" filter="url(#filter0_f_2747_37218)">
<circle cx="656.746" cy="1852.78" r="143" transform="rotate(165 656.746 1852.78)" fill="#04142D"/>
<circle cx="101.162" cy="2050.14" r="143" transform="rotate(165 101.162 2050.14)" fill="#52B9F4"/>
<circle cx="144.162" cy="2821.14" r="143" transform="rotate(165 144.162 2821.14)" fill="#2F6FF3"/>
<circle cx="932.154" cy="2812.14" r="143" transform="rotate(165 932.154 2812.14)" fill="#2F6FF3"/>
<circle cx="555.479" cy="1576.92" r="143" transform="rotate(165 555.479 1576.92)" fill="#70F1D5" fill-opacity="0.03"/>
</g>
<g opacity="0.5" filter="url(#filter1_f_2747_37218)">
<ellipse cx="2603.94" cy="2147.3" rx="155.268" ry="225.474" transform="rotate(-180 2603.94 2147.3)" fill="#04142D"/>
<ellipse cx="2547.88" cy="3353.2" rx="268.745" ry="390.261" transform="rotate(-180 2547.88 3353.2)" fill="#2FBBF3" fill-opacity="0.32"/>
<ellipse opacity="0.73" cx="1895.59" cy="3010.54" rx="401.5" ry="390.5" transform="rotate(-180 1895.59 3010.54)" fill="#2FBBF3" fill-opacity="0.32"/>
<ellipse opacity="0.55" cx="757.203" cy="4497.56" rx="155.268" ry="225.474" transform="rotate(-180 757.203 4497.56)" fill="#2FBBF3"/>
<ellipse cx="867.556" cy="-29.5477" rx="155.268" ry="225.474" transform="rotate(-180 867.556 -29.5477)" fill="#2FBBF3"/>
<ellipse cx="202.084" cy="713.124" rx="137.461" ry="199.616" transform="rotate(-180 202.084 713.124)" fill="#2FBBF3"/>
<ellipse cx="2053.58" cy="2456.55" rx="243.457" ry="355.89" transform="rotate(-180 2053.58 2456.55)" fill="#2F6FF3" fill-opacity="0.43"/>
<ellipse cx="1350.57" cy="3511.02" rx="243.457" ry="355.89" transform="rotate(-180 1350.57 3511.02)" fill="#2F6FF3" fill-opacity="0.43"/>
<ellipse opacity="0.72" cx="931.588" cy="3988" rx="423.5" ry="356" transform="rotate(-180 931.588 3988)" fill="#2F6FF3" fill-opacity="0.43"/>
<ellipse cx="556.521" cy="3426.89" rx="243.457" ry="355.89" transform="rotate(-130.037 556.521 3426.89)" fill="#2F6FF3" fill-opacity="0.43"/>
<ellipse cx="1401.51" cy="4453.89" rx="243.457" ry="355.89" transform="rotate(-180 1401.51 4453.89)" fill="#2F6FF3" fill-opacity="0.43"/>
<ellipse cx="2235.97" cy="219.537" rx="205.207" ry="299.976" transform="rotate(-180 2235.97 219.537)" fill="#2FF3DC" fill-opacity="0.5"/>
<ellipse cx="595.053" cy="2338.12" rx="205.207" ry="299.976" transform="rotate(-180 595.053 2338.12)" fill="#2FB2F3" fill-opacity="0.26"/>
<ellipse cx="218.791" cy="4062.95" rx="259.877" ry="379.893" transform="rotate(-180 218.791 4062.95)" fill="#2FB2F3" fill-opacity="0.26"/>
<ellipse cx="2.75632" cy="2315.61" rx="259.877" ry="379.893" transform="rotate(-180 2.75632 2315.61)" fill="#2FB2F3" fill-opacity="0.26"/>
<ellipse cx="1970.79" cy="4367.98" rx="259.877" ry="379.893" transform="rotate(-180 1970.79 4367.98)" fill="#2FB2F3" fill-opacity="0.26"/>
<ellipse cx="931.057" cy="603.66" rx="243.457" ry="355.89" transform="rotate(-180 931.057 603.66)" fill="#2F8AF3" fill-opacity="0.43"/>
<ellipse cx="2045.75" cy="1661.47" rx="243.457" ry="355.89" transform="rotate(-180 2045.75 1661.47)" fill="#2F87F3" fill-opacity="0.43"/>
<ellipse cx="1493.85" cy="390.394" rx="312.842" ry="454.297" transform="rotate(-180 1493.85 390.394)" fill="#2F6FF3" fill-opacity="0.38"/>
<ellipse cx="1631.89" cy="1122.4" rx="312.842" ry="454.297" transform="rotate(-180 1631.89 1122.4)" fill="#2F6FF3" fill-opacity="0.38"/>
<ellipse cx="2706.73" cy="377.696" rx="312.842" ry="454.297" transform="rotate(-180 2706.73 377.696)" fill="#2F6FF3" fill-opacity="0.38"/>
<ellipse cx="2982.31" cy="499.458" rx="547.356" ry="794.849" transform="rotate(-180 2982.31 499.458)" fill="#2FAEF3" fill-opacity="0.2"/>
<ellipse cx="489.458" cy="1704.81" rx="215.342" ry="312.712" transform="rotate(-180 489.458 1704.81)" fill="#2F77F3" fill-opacity="0.62"/>
<ellipse opacity="0.49" cx="1147.6" cy="1751.57" rx="563.5" ry="523.5" transform="rotate(-180 1147.6 1751.57)" fill="#2F77F3" fill-opacity="0.62"/>
<ellipse opacity="0.2" cx="2577.09" cy="1801.46" rx="155.268" ry="225.474" transform="rotate(-180 2577.09 1801.46)" fill="#70F1D5"/>
</g>
<g opacity="0.6" filter="url(#filter2_f_2747_37218)">
<circle cx="2648.74" cy="4036.68" r="190.325" transform="rotate(172.492 2648.74 4036.68)" fill="#004DC5" fill-opacity="0.67"/>
<circle cx="2106.73" cy="545.682" r="190.325" transform="rotate(172.492 2106.73 545.682)" fill="#004DC5" fill-opacity="0.67"/>
<circle opacity="0.51" cx="1401.43" cy="2443.36" r="280.627" transform="rotate(172.492 1401.43 2443.36)" fill="#52B9F4" fill-opacity="0.72"/>
<circle opacity="0.39" cx="107.399" cy="1286.34" r="328.146" transform="rotate(172.492 107.399 1286.34)" fill="#52B9F4" fill-opacity="0.72"/>
<circle opacity="0.39" cx="76.426" cy="3143.32" r="328.146" transform="rotate(172.492 76.426 3143.32)" fill="#52B9F4" fill-opacity="0.72"/>
<ellipse cx="1204.39" cy="5102.06" rx="1042.16" ry="81.0881" transform="rotate(-179.677 1204.39 5102.06)" fill="#2F8EF3"/>
<circle cx="582.974" cy="901.551" r="155.268" transform="rotate(172.492 582.974 901.551)" fill="#70DEF1" fill-opacity="0.58"/>
</g>
<g opacity="0.26" filter="url(#filter3_f_2747_37218)">
<circle cx="51" cy="-111.338" r="143" fill="#04142D"/>
<circle cx="274.102" cy="31.6616" r="143" fill="#52B9F4"/>
<circle cx="75.7285" cy="108" r="143" fill="#70F1D5"/>
</g>
<g opacity="0.1" filter="url(#filter4_f_2747_37218)">
<circle opacity="0.5" cx="2662.88" cy="565.618" r="143" transform="rotate(165 2662.88 565.618)" fill="#52B9F4"/>
</g>
</g>
<defs>
<filter id="filter0_f_2747_37218" x="-441.873" y="1033.88" width="1917.06" height="2330.29" filterUnits="userSpaceOnUse" color-interpolation-filters="sRGB">
<feFlood flood-opacity="0" result="BackgroundImageFix"/>
<feBlend mode="normal" in="SourceGraphic" in2="BackgroundImageFix" result="shape"/>
<feGaussianBlur stdDeviation="200" result="effect1_foregroundBlur_2747_37218"/>
</filter>
<filter id="filter1_f_2747_37218" x="-657.121" y="-695.39" width="4586.78" height="6338.9" filterUnits="userSpaceOnUse" color-interpolation-filters="sRGB">
<feFlood flood-opacity="0" result="BackgroundImageFix"/>
<feBlend mode="normal" in="SourceGraphic" in2="BackgroundImageFix" result="shape"/>
<feGaussianBlur stdDeviation="200" result="effect1_foregroundBlur_2747_37218"/>
</filter>
<filter id="filter2_f_2747_37218" x="-651.756" y="-44.6641" width="3890.85" height="5628.02" filterUnits="userSpaceOnUse" color-interpolation-filters="sRGB">
<feFlood flood-opacity="0" result="BackgroundImageFix"/>
<feBlend mode="normal" in="SourceGraphic" in2="BackgroundImageFix" result="shape"/>
<feGaussianBlur stdDeviation="200" result="effect1_foregroundBlur_2747_37218"/>
</filter>
<filter id="filter3_f_2747_37218" x="-492" y="-721" width="1309.1" height="1372" filterUnits="userSpaceOnUse" color-interpolation-filters="sRGB">
<feFlood flood-opacity="0" result="BackgroundImageFix"/>
<feBlend mode="normal" in="SourceGraphic" in2="BackgroundImageFix" result="shape"/>
<feGaussianBlur stdDeviation="200" result="effect1_foregroundBlur_2747_37218"/>
</filter>
<filter id="filter4_f_2747_37218" x="2119.84" y="-102.498" width="1338.58" height="1404.21" filterUnits="userSpaceOnUse" color-interpolation-filters="sRGB">
<feFlood flood-opacity="0" result="BackgroundImageFix"/>
<feBlend mode="normal" in="SourceGraphic" in2="BackgroundImageFix" result="shape"/>
<feGaussianBlur stdDeviation="200" result="effect1_foregroundBlur_2747_37218"/>
</filter>
<clipPath id="clip0_2747_37218">
<rect width="2500" height="5807" fill="white"/>
</clipPath>
</defs>
</svg>
