<svg width="19" height="17" viewBox="0 0 19 17" fill="none" xmlns="http://www.w3.org/2000/svg">
<path fill-rule="evenodd" clip-rule="evenodd" d="M13.0524 5.68421H11.9036L9.64151 8.17474L8.55099 7.18295L11.0327 4.45147C11.1018 4.37554 11.186 4.31489 11.2798 4.2734C11.3737 4.2319 11.4753 4.21049 11.5779 4.21053H13.0524V2L16.7366 4.99305L13.0524 7.89474V5.68421ZM11.9039 12.3158H13.0526V10.1053L16.7368 13.0526L13.0526 16V13.7895H11.5782C11.4756 13.7895 11.374 13.7681 11.2801 13.7266C11.1862 13.6851 11.102 13.6245 11.0329 13.5485L7.89474 10.0957L4.75653 13.5493C4.68744 13.6252 4.60325 13.6858 4.50935 13.7273C4.41545 13.7688 4.31392 13.7902 4.21126 13.7902H2V12.3165H3.88558L6.89926 9L3.88558 5.68421H2V4.21053H4.21126C4.31392 4.21049 4.41545 4.2319 4.50935 4.2734C4.60325 4.31489 4.68744 4.37554 4.75653 4.45147L11.9039 12.3158Z" fill="#93D3E7"/>
</svg>
