<svg width="24" height="24" viewBox="0 0 24 24" fill="none" xmlns="http://www.w3.org/2000/svg">
<path d="M15.5 18.5L12 20.5L9 19L5.5 16.5L3.5 13L2.5 8.5L5 4.5H9L12 6L14 5L17 4L20 6L21.5 9L20.5 13.5L15.5 18.5Z" fill="url(#paint0_linear_8433_13044)"/>
<path d="M9.6709 18.6279C10.0187 18.8958 10.3571 19.1415 10.6914 19.3369C10.9697 19.4995 11.2389 19.6215 11.5 19.6934V20.1113C11.1548 20.0319 10.8159 19.8811 10.4863 19.6885C10.1305 19.4805 9.77402 19.2208 9.41895 18.9473L9.6709 18.6279ZM14.5801 18.9473C14.2252 19.2207 13.8693 19.4806 13.5137 19.6885C13.1841 19.8811 12.8452 20.0319 12.5 20.1113V19.6934C12.7611 19.6215 13.0303 19.4995 13.3086 19.3369C13.6427 19.1417 13.9805 18.8956 14.3281 18.6279L14.5801 18.9473ZM2.8457 9.81738C2.97189 11.792 3.8384 13.3436 5.00586 14.6582C6.15844 15.956 7.58828 17.0111 8.88184 18.0137L8.62988 18.333C7.34834 17.3404 5.88156 16.2558 4.70215 14.9277C3.48739 13.5599 2.5648 11.9179 2.4375 9.81738H2.8457ZM21.5625 9.81738C21.4352 11.9179 20.5126 13.5599 19.2979 14.9277C18.1183 16.256 16.6508 17.3402 15.3691 18.333L15.1172 18.0137C16.4109 17.011 17.8414 15.9562 18.9941 14.6582C20.1616 13.3436 21.0281 11.792 21.1543 9.81738H21.5625ZM12.75 4.95508C14.6684 3.45709 16.7087 3.32255 18.3535 4.07422C20.11 4.87712 21.3834 6.67834 21.5566 8.81738H21.1475C20.9754 6.8331 19.7921 5.17916 18.1846 4.44434C16.7029 3.76716 14.8351 3.85936 13.0352 5.24805L12.8672 5.07324C12.8285 5.03306 12.7889 4.99421 12.75 4.95508ZM5.64648 4.07422C7.29113 3.32264 9.33077 3.45755 11.249 4.95508C11.2103 4.99405 11.1713 5.03323 11.1328 5.07324L10.9639 5.24805C9.16411 3.85982 7.29691 3.76725 5.81543 4.44434C4.20787 5.17916 3.02465 6.83311 2.85254 8.81738H2.44336C2.6166 6.67834 3.88999 4.87712 5.64648 4.07422Z" fill="#054D63" stroke="#054D63"/>
<defs>
<linearGradient id="paint0_linear_8433_13044" x1="12" y1="4" x2="12" y2="20.5" gradientUnits="userSpaceOnUse">
<stop stop-color="#0059FF"/>
<stop offset="1" stop-color="#6FBAFF"/>
</linearGradient>
</defs>
</svg>
