<svg width="24" height="24" viewBox="0 0 24 24" fill="none" xmlns="http://www.w3.org/2000/svg">
<g clip-path="url(#clip0_2573_35765)">
<path d="M8.13123 6.95226L10.8242 4.24746V15.5254C10.8242 15.8372 10.9482 16.1364 11.1687 16.3569C11.3892 16.5774 11.6883 16.7014 12.0002 16.7014C12.3121 16.7014 12.6113 16.5774 12.8318 16.3569C13.0523 16.1364 13.1762 15.8372 13.1762 15.5254V4.24746L15.8692 6.95226C15.9786 7.06246 16.1087 7.14996 16.2519 7.20966C16.3953 7.26936 16.549 7.30016 16.7042 7.30016C16.8594 7.30016 17.0131 7.26936 17.1565 7.20966C17.2997 7.14996 17.4298 7.06246 17.5392 6.95226C17.6494 6.84296 17.7369 6.71286 17.7966 6.56956C17.8563 6.42626 17.887 6.27256 17.887 6.11736C17.887 5.96206 17.8563 5.80836 17.7966 5.66506C17.7369 5.52176 17.6494 5.39166 17.5392 5.28236L12.8352 0.578364C12.7233 0.471264 12.5915 0.387364 12.4471 0.331364C12.1607 0.213764 11.8397 0.213764 11.5533 0.331364C11.4089 0.387364 11.2771 0.471264 11.1652 0.578364L6.46124 5.28236C6.35163 5.39206 6.26463 5.52216 6.20533 5.66546C6.14593 5.80866 6.11543 5.96226 6.11543 6.11736C6.11543 6.27236 6.14593 6.42596 6.20533 6.56916C6.26463 6.71246 6.35163 6.84266 6.46124 6.95226C6.57093 7.06196 6.70113 7.14896 6.84433 7.20826C6.98763 7.26756 7.14113 7.29816 7.29623 7.29816C7.45133 7.29816 7.60483 7.26756 7.74813 7.20826C7.89133 7.14896 8.02153 7.06196 8.13123 6.95226ZM22.5842 11.9974C22.2723 11.9974 21.9732 12.1213 21.7527 12.3418C21.5322 12.5623 21.4082 12.8615 21.4082 13.1734V20.2294C21.4082 20.5412 21.2843 20.8404 21.0638 21.0609C20.8433 21.2814 20.5441 21.4054 20.2322 21.4054H3.76823C3.45633 21.4054 3.15723 21.2814 2.93663 21.0609C2.71613 20.8404 2.59223 20.5412 2.59223 20.2294V13.1734C2.59223 12.8615 2.46833 12.5623 2.24783 12.3418C2.02723 12.1213 1.72813 11.9974 1.41623 11.9974C1.10433 11.9974 0.805234 12.1213 0.584634 12.3418C0.364134 12.5623 0.240234 12.8615 0.240234 13.1734V20.2294C0.240234 21.165 0.611934 22.0624 1.27353 22.724C1.93523 23.3856 2.83253 23.7574 3.76823 23.7574H20.2322C21.1678 23.7574 22.0652 23.3856 22.7269 22.724C23.3885 22.0624 23.7602 21.165 23.7602 20.2294V13.1734C23.7602 12.8615 23.6362 12.5623 23.4158 12.3418C23.1954 12.1213 22.8961 11.9974 22.5842 11.9974Z" fill="#7BAFDF"/>
</g>
<defs>
<clipPath id="clip0_2573_35765">
<rect width="24" height="24" fill="white"/>
</clipPath>
</defs>
</svg>
