<svg width="24" height="24" viewBox="0 0 24 24" fill="none" xmlns="http://www.w3.org/2000/svg">
<path d="M15.5 18L12 20L9 18.5L5.5 16L3.5 12.5L2.5 8L5 4H9L12 5.5L14 4.5L17 3.5L20 5.5L21.5 8.5L20.5 13L15.5 18Z" fill="url(#paint0_linear_8052_2489)" fill-opacity="0.8"/>
<path d="M12 5.90695L11.4934 6.39454C11.6259 6.53225 11.8088 6.61007 12 6.61007C12.1912 6.61007 12.3741 6.53225 12.5066 6.39454L12 5.90695ZM9.58692 17.9268C8.16599 16.8067 6.61225 15.7128 5.37965 14.3249C4.17114 12.9641 3.32812 11.3762 3.32812 9.31613H1.92188C1.92188 11.8151 2.96297 13.7214 4.32817 15.2586C5.66927 16.7687 7.37885 17.9769 8.71633 19.0312L9.58692 17.9268ZM3.32812 9.31613C3.32812 7.29969 4.46753 5.60872 6.02284 4.89778C7.53382 4.20711 9.56406 4.39002 11.4934 6.39454L12.5066 5.41935C10.2173 3.04091 7.56008 2.6489 5.43821 3.61881C3.36067 4.56847 1.92188 6.77356 1.92188 9.31613H3.32812ZM8.71633 19.0312C9.19655 19.4098 9.71207 19.8135 10.2345 20.1188C10.7568 20.424 11.3527 20.6719 12 20.6719V19.2657C11.7098 19.2657 11.3682 19.1525 10.944 18.9047C10.52 18.6569 10.0801 18.3156 9.58692 17.9268L8.71633 19.0312ZM15.2837 19.0312C16.6211 17.9769 18.3307 16.7687 19.6718 15.2586C21.037 13.7214 22.0781 11.8151 22.0781 9.31613H20.6719C20.6719 11.3762 19.8289 12.9641 18.6203 14.3249C17.3877 15.7128 15.834 16.8067 14.4131 17.9268L15.2837 19.0312ZM22.0781 9.31613C22.0781 6.77356 20.6393 4.56847 18.5618 3.61881C16.4399 2.6489 13.7827 3.04091 11.4934 5.41935L12.5066 6.39454C14.4359 4.39002 16.4662 4.20711 17.9771 4.89778C19.5324 5.60872 20.6719 7.29969 20.6719 9.31613H22.0781ZM14.4131 17.9268C13.9199 18.3156 13.48 18.6569 13.056 18.9047C12.6318 19.1525 12.2902 19.2657 12 19.2657V20.6719C12.6473 20.6719 13.2432 20.424 13.7655 20.1188C14.288 19.8135 14.8034 19.4098 15.2837 19.0312L14.4131 17.9268Z" fill="#F0F0F0"/>
<defs>
<linearGradient id="paint0_linear_8052_2489" x1="12" y1="3.5" x2="12" y2="20" gradientUnits="userSpaceOnUse">
<stop stop-color="#205579"/>
<stop offset="1" stop-color="#205579" stop-opacity="0.31"/>
</linearGradient>
</defs>
</svg>
