<svg width="180" height="181" viewBox="0 0 180 181" fill="none" xmlns="http://www.w3.org/2000/svg">
<path d="M90 0.5C139.43 0.5 179.5 40.6223 179.5 90.1143C179.5 139.606 139.43 179.729 90 179.729C40.5699 179.729 0.5 139.606 0.5 90.1143C0.500099 40.6223 40.57 0.5 90 0.5Z" fill="url(#paint0_linear_1727_4470)" stroke="#34CFFE"/>
<g clip-path="url(#clip0_1727_4470)">
<g clip-path="url(#clip1_1727_4470)">
<g opacity="0.4" filter="url(#filter0_f_1727_4470)">
<path d="M95.0003 86.9998C99.9709 86.9998 104 82.9703 104 77.9998C104 73.0292 99.9709 68.9998 95.0003 68.9998C90.0297 68.9998 86.0003 73.0292 86.0003 77.9998C86.0003 82.9703 90.0297 86.9998 95.0003 86.9998Z" fill="#0091FF" fill-opacity="0.8"/>
<g filter="url(#filter1_f_1727_4470)">
<path d="M84.0003 107C95.046 107 104 98.4932 104 87.9998C104 77.5063 95.046 68.9998 84.0003 68.9998C72.9546 68.9998 64.0003 77.5063 64.0003 87.9998C64.0003 98.4932 72.9546 107 84.0003 107Z" fill="#0091FF" fill-opacity="0.8"/>
</g>
<g filter="url(#filter2_f_1727_4470)">
<path d="M94.5003 115C106.374 115 116 105.598 116 93.9998C116 82.4018 106.374 72.9998 94.5003 72.9998C82.6262 72.9998 73.0003 82.4018 73.0003 93.9998C73.0003 105.598 82.6262 115 94.5003 115Z" fill="#689DFF" fill-opacity="0.8"/>
</g>
</g>
<path d="M89.9992 115.5C104.083 115.5 115.499 104.083 115.499 89.9999C115.499 75.9166 104.083 64.4998 89.9992 64.4998C75.9158 64.4998 64.499 75.9166 64.499 89.9999C64.499 104.083 75.9158 115.5 89.9992 115.5Z" stroke="url(#paint1_linear_1727_4470)" stroke-width="3" stroke-linecap="round" stroke-linejoin="round"/>
<path d="M90.0004 38.9998V46.846" stroke="#92C1FD" stroke-width="3" stroke-linecap="round" stroke-linejoin="round"/>
<path d="M90.0004 133.154V141" stroke="#92C1FD" stroke-width="3" stroke-linecap="round" stroke-linejoin="round"/>
<path d="M140.999 89.9998H133.153" stroke="#92C1FD" stroke-width="3" stroke-linecap="round" stroke-linejoin="round"/>
<path d="M46.846 89.9998H38.9998" stroke="#92C1FD" stroke-width="3" stroke-linecap="round" stroke-linejoin="round"/>
<path d="M126.093 53.907L120.522 59.4778" stroke="#92C1FD" stroke-width="3" stroke-linecap="round" stroke-linejoin="round"/>
<path d="M59.4792 120.522L53.9084 126.093" stroke="#92C1FD" stroke-width="3" stroke-linecap="round" stroke-linejoin="round"/>
<path d="M126.093 126.093L120.522 120.522" stroke="#92C1FD" stroke-width="3" stroke-linecap="round" stroke-linejoin="round"/>
<path d="M59.4792 59.4778L53.9084 53.907" stroke="#92C1FD" stroke-width="3" stroke-linecap="round" stroke-linejoin="round"/>
</g>
</g>
<defs>
<filter id="filter0_f_1727_4470" x="42.5003" y="47.4998" width="95" height="89" filterUnits="userSpaceOnUse" color-interpolation-filters="sRGB">
<feFlood flood-opacity="0" result="BackgroundImageFix"/>
<feBlend mode="normal" in="SourceGraphic" in2="BackgroundImageFix" result="shape"/>
<feGaussianBlur stdDeviation="10.75" result="effect1_foregroundBlur_1727_4470"/>
</filter>
<filter id="filter1_f_1727_4470" x="60.0003" y="64.9998" width="48" height="46" filterUnits="userSpaceOnUse" color-interpolation-filters="sRGB">
<feFlood flood-opacity="0" result="BackgroundImageFix"/>
<feBlend mode="normal" in="SourceGraphic" in2="BackgroundImageFix" result="shape"/>
<feGaussianBlur stdDeviation="2" result="effect1_foregroundBlur_1727_4470"/>
</filter>
<filter id="filter2_f_1727_4470" x="69.0003" y="68.9998" width="51" height="50" filterUnits="userSpaceOnUse" color-interpolation-filters="sRGB">
<feFlood flood-opacity="0" result="BackgroundImageFix"/>
<feBlend mode="normal" in="SourceGraphic" in2="BackgroundImageFix" result="shape"/>
<feGaussianBlur stdDeviation="2" result="effect1_foregroundBlur_1727_4470"/>
</filter>
<linearGradient id="paint0_linear_1727_4470" x1="90" y1="1" x2="90" y2="179.229" gradientUnits="userSpaceOnUse">
<stop stop-color="#005AAE" stop-opacity="0.7"/>
<stop offset="0.075" stop-color="#002E60" stop-opacity="0.5"/>
<stop offset="0.235" stop-color="#00151A" stop-opacity="0.1"/>
<stop offset="0.91" stop-color="#004493" stop-opacity="0.4"/>
<stop offset="1" stop-color="#0058FB" stop-opacity="0.7"/>
</linearGradient>
<linearGradient id="paint1_linear_1727_4470" x1="89.9992" y1="64.4998" x2="89.9992" y2="115.5" gradientUnits="userSpaceOnUse">
<stop stop-color="#70A1F1"/>
<stop offset="0.5" stop-color="#52B9F4"/>
<stop offset="1" stop-color="#16276F"/>
</linearGradient>
<clipPath id="clip0_1727_4470">
<rect width="102" height="102" fill="white" transform="translate(39 39)"/>
</clipPath>
<clipPath id="clip1_1727_4470">
<rect width="102" height="102" fill="white" transform="translate(39.0003 38.9998)"/>
</clipPath>
</defs>
</svg>
