<svg width="255" height="229" viewBox="0 0 255 229" fill="none" xmlns="http://www.w3.org/2000/svg">
<g clip-path="url(#clip0_8090_15177)">
<path d="M127.5 0L81.9902 148.213L127.5 228.993L173.009 148.213L127.5 0Z" fill="#004275"/>
<path d="M127.501 47.0356L102.855 127.302L127.501 171.048L152.147 127.302L127.501 47.0356Z" fill="#007AC1"/>
<path d="M127.501 83.3638L98.5586 177.625L127.501 229L156.444 177.625L127.501 83.3638Z" fill="#0B89CD"/>
<path d="M127.501 83.3706L110.08 140.104L127.501 171.023L144.92 140.104L127.501 83.3706Z" fill="#40CCFF"/>
<path d="M252.895 56.751L196.864 96.9398L191.223 137.835L229.092 121.524L252.895 56.751Z" fill="#004275"/>
<path d="M240.228 73.4058L209.884 95.1713L206.828 117.319L227.337 108.484L240.228 73.4058Z" fill="#007AC1"/>
<path d="M230.442 86.2695L194.807 111.83L191.219 137.837L215.305 127.463L230.442 86.2695Z" fill="#0B89CD"/>
<path d="M230.441 86.2725L208.994 101.655L206.834 117.309L221.33 111.065L230.441 86.2725Z" fill="#40CCFF"/>
<path d="M255.001 178.948L210.578 182.476L190.768 164.62L216.274 156.872L255.001 178.948Z" fill="#004275"/>
<path d="M241.807 176.006L217.749 177.916L207.02 168.246L220.833 164.05L241.807 176.006Z" fill="#007AC1"/>
<path d="M231.617 173.733L203.365 175.976L190.766 164.619L206.988 159.692L231.617 173.733Z" fill="#0B89CD"/>
<path d="M231.616 173.731L214.612 175.083L207.027 168.247L216.792 165.281L231.616 173.731Z" fill="#40CCFF"/>
<path d="M2.10547 56.751L58.1367 96.9398L63.7793 137.835L25.9082 121.524L2.10547 56.751Z" fill="#004275"/>
<path d="M14.7734 73.4058L45.1175 95.1713L48.1716 117.319L27.664 108.484L14.7734 73.4058Z" fill="#007AC1"/>
<path d="M24.5566 86.2695L60.192 111.83L63.7799 137.837L39.6953 127.463L24.5566 86.2695Z" fill="#0B89CD"/>
<path d="M24.5586 86.2725L46.0071 101.655L48.1666 117.309L33.6706 111.065L24.5586 86.2725Z" fill="#40CCFF"/>
<path d="M0 178.948L44.4219 182.476L64.2337 164.62L38.7262 156.872L0 178.948Z" fill="#004275"/>
<path d="M13.1934 176.006L37.2493 177.916L47.979 168.246L34.1652 164.05L13.1934 176.006Z" fill="#007AC1"/>
<path d="M23.3828 173.733L51.6354 175.976L64.2346 164.619L48.0134 159.692L23.3828 173.733Z" fill="#0B89CD"/>
<path d="M23.3867 173.731L40.3908 175.083L47.9737 168.247L38.2108 165.281L23.3867 173.731Z" fill="#40CCFF"/>
</g>
<defs>
<clipPath id="clip0_8090_15177">
<rect width="255" height="229" fill="white"/>
</clipPath>
</defs>
</svg>
