<svg width="24" height="24" viewBox="0 0 24 24" fill="none" xmlns="http://www.w3.org/2000/svg">
<path d="M10.534 1.2793C5.35312 1.2793 1.12695 5.41924 1.12695 10.5583C1.12695 15.6974 5.35312 19.8373 10.534 19.8373C12.768 19.8373 14.8245 19.0675 16.4412 17.7798L20.7939 22.1324C21.1844 22.523 21.8176 22.523 22.2081 22.1324C22.5986 21.7419 22.5986 21.1087 22.2081 20.7182L17.8644 16.3745C19.1626 14.7853 19.941 12.7638 19.941 10.5583C19.941 5.41924 15.7148 1.2793 10.534 1.2793ZM3.12695 10.5583C3.12695 6.55263 6.42865 3.2793 10.534 3.2793C14.6393 3.2793 17.941 6.55263 17.941 10.5583C17.941 14.564 14.6393 17.8373 10.534 17.8373C6.42865 17.8373 3.12695 14.564 3.12695 10.5583Z" fill="#AAE4FF"/>
</svg>
